<svg width="25" height="24" viewBox="0 0 25 24" fill="none" xmlns="http://www.w3.org/2000/svg">
<path d="M12.25 0.0488281C10.6741 0.0488281 9.11371 0.359217 7.6578 0.962274C6.20189 1.56533 4.87902 2.44924 3.76472 3.56355C1.51428 5.81398 0.25 8.86623 0.25 12.0488C0.25 17.3528 3.694 21.8528 8.458 23.4488C9.058 23.5448 9.25 23.1728 9.25 22.8488V20.8208C5.926 21.5408 5.218 19.2128 5.218 19.2128C4.666 17.8208 3.886 17.4488 3.886 17.4488C2.794 16.7048 3.97 16.7288 3.97 16.7288C5.17 16.8128 5.806 17.9648 5.806 17.9648C6.85 19.7888 8.614 19.2488 9.298 18.9608C9.406 18.1808 9.718 17.6528 10.054 17.3528C7.39 17.0528 4.594 16.0208 4.594 11.4488C4.594 10.1168 5.05 9.04883 5.83 8.19683C5.71 7.89683 5.29 6.64883 5.95 5.02883C5.95 5.02883 6.958 4.70483 9.25 6.25283C10.198 5.98883 11.23 5.85683 12.25 5.85683C13.27 5.85683 14.302 5.98883 15.25 6.25283C17.542 4.70483 18.55 5.02883 18.55 5.02883C19.21 6.64883 18.79 7.89683 18.67 8.19683C19.45 9.04883 19.906 10.1168 19.906 11.4488C19.906 16.0328 17.098 17.0408 14.422 17.3408C14.854 17.7128 15.25 18.4448 15.25 19.5608V22.8488C15.25 23.1728 15.442 23.5568 16.054 23.4488C20.818 21.8408 24.25 17.3528 24.25 12.0488C24.25 10.473 23.9396 8.91253 23.3366 7.45663C22.7335 6.00072 21.8496 4.67785 20.7353 3.56355C19.621 2.44924 18.2981 1.56533 16.8422 0.962274C15.3863 0.359217 13.8259 0.0488281 12.25 0.0488281Z" fill="#D1D5DB"/>
</svg>
